<?xml version="1.0" encoding="UTF-8" standalone="no"?>
<svg
   height="512"
   width="512"
   style="enable-background:new 0 0 512 512"
   xml:space="preserve"
   version="1.1"
   id="svg4"
   sodipodi:docname="dollchip.svg"
   inkscape:version="1.3.2 (091e20e, 2023-11-25, custom)"
   xmlns:inkscape="http://www.inkscape.org/namespaces/inkscape"
   xmlns:sodipodi="http://sodipodi.sourceforge.net/DTD/sodipodi-0.dtd"
   xmlns="http://www.w3.org/2000/svg"
   xmlns:svg="http://www.w3.org/2000/svg"><sodipodi:namedview
     id="namedview4"
     pagecolor="#505050"
     bordercolor="#eeeeee"
     borderopacity="1"
     inkscape:showpageshadow="0"
     inkscape:pageopacity="0"
     inkscape:pagecheckerboard="0"
     inkscape:deskcolor="#505050"
     inkscape:zoom="1.1131408"
     inkscape:cx="192.24882"
     inkscape:cy="231.32744"
     inkscape:window-width="1920"
     inkscape:window-height="1017"
     inkscape:window-x="-8"
     inkscape:window-y="-8"
     inkscape:window-maximized="1"
     inkscape:current-layer="g4" /><defs
     id="defs2"><filter
       style="color-interpolation-filters:sRGB"
       id="a"
       x="-0.076983662"
       y="-0.076983478"
       width="1.1539673"
       height="1.153967"><feFlood
         flood-opacity="1"
         flood-color="#3A3F5E"
         result="flood"
         id="feFlood1" /><feComposite
         in="flood"
         in2="SourceGraphic"
         operator="out"
         result="composite1"
         id="feComposite1" /><feGaussianBlur
         in="composite1"
         stdDeviation="13.48"
         result="blur"
         id="feGaussianBlur1" /><feOffset
         result="offset"
         id="feOffset1" /><feComposite
         in="offset"
         in2="SourceGraphic"
         operator="atop"
         result="composite2"
         id="feComposite2" /></filter><filter
       id="shadow-1"
       height="1.1515523"
       width="1.1514594"
       x="-0.075729688"
       y="-0.075776137"><feFlood
         flood-color="rgba(58, 63, 94, 1)"
         result="flood"
         id="feFlood1-4" /><feComposite
         in="flood"
         in2="SourceGraphic"
         operator="atop"
         result="composite"
         id="feComposite1-1" /><feGaussianBlur
         in="composite"
         stdDeviation="15"
         result="blur"
         id="feGaussianBlur1-7" /><feOffset
         dx="0"
         dy="0"
         result="offset"
         id="feOffset1-2" /><feComposite
         in2="offset"
         in="SourceGraphic"
         operator="over"
         id="feComposite2-6" /></filter><filter
       style="color-interpolation-filters:sRGB;"
       inkscape:label="Drop Shadow"
       id="filter8"
       x="-0.075729688"
       y="-0.075776137"
       width="1.1514594"
       height="1.1515523"><feFlood
         result="flood"
         in="SourceGraphic"
         flood-opacity="1.000000"
         flood-color="rgb(58,63,94)"
         id="feFlood7" /><feGaussianBlur
         result="blur"
         in="SourceGraphic"
         stdDeviation="15.000000"
         id="feGaussianBlur7" /><feOffset
         result="offset"
         in="blur"
         dx="0.000000"
         dy="0.000000"
         id="feOffset7" /><feComposite
         result="comp1"
         operator="in"
         in="flood"
         in2="offset"
         id="feComposite7" /><feComposite
         result="comp2"
         operator="over"
         in="SourceGraphic"
         in2="comp1"
         id="feComposite8" /></filter></defs><path
     d="M0 0h512v512H0Z"
     fill="#b90202"
     style="fill:#1b1f21;fill-opacity:1"
     id="path2" /><g
     style="fill:#e64539;fill-opacity:1;filter:url(#a)"
     id="g4"><g
       style="fill:#e64539;fill-opacity:1"
       id="g3"><path
         style="fill:#e64539;fill-opacity:1;stroke-width:0.820792"
         d="m 93.26,45.877 c -26.125,0 -47.383,21.258 -47.383,47.4 v 40.15 c 0,9.667 7.827,17.512 17.51,17.512 h 17.51 v 35.02 h -17.51 c -9.683,0 -17.51,7.844 -17.51,17.51 v 215.254 c 0,26.142 21.258,47.4 47.383,47.4 h 215.27 c 9.683,0 17.51,-7.844 17.51,-17.51 0,-11.626 5.9,-17.51 17.51,-17.51 11.61,0 17.51,5.883 17.51,17.51 0,9.666 7.828,17.51 17.511,17.51 h 40.168 c 26.125,0 47.383,-21.258 47.383,-47.4 V 93.277 c 0,-26.142 -21.258,-47.4 -47.383,-47.4 h -40.168 c -9.683,0 -17.511,7.844 -17.511,17.51 0,0.175 -0.753,17.51 -17.51,17.51 -16.25,0 -17.51,-13.413 -17.51,-17.51 0,-9.666 -7.827,-17.51 -17.51,-17.51 H 93.26 Z"
         id="path3"
         sodipodi:nodetypes="ssssccsssssssssssssssssscs" /></g><path
       d="m 257.03248,18.458188 c -25.61,0 -46.22,20.72 -46.22,46.593 0,25.874995 20.61,46.594992 46.22,46.594992 25.61,0 46.25,-20.719997 46.25,-46.593992 0,-25.872 -20.64,-46.593 -46.25,-46.593 z m 122.78,37.937 -78.31,58.624992 c 2.665,5.776 4.776,12.026 6.25,18.656 l 69,-51.655993 3.062,-25.624999 z m -255.342,1.28 8.875,27.406999 64.186,39.375993 c 2.513,-5.943 5.514,-11.462 8.938,-16.47 l -82,-50.311992 z m 273.626,3.065 -3.095,26.279999 41.438,52.624993 c 4.674,-4.206 10.216,-7.468 16.312,-9.47 z m -291.94,1 -51.717997,79.999992 c 6.345,1.322 12.192,3.976 17.282,7.655 l 41.843997,-64.719993 -7.407,-22.935999 z m 111.94,55.499992 c -7.12,10.803 -12.285,24.91 -13.907,40.686 -2,19.438 1.785,37.464 9.062,50.563 7.277,13.098 17.574,20.998 29.28,22.218 11.708,1.22 23.405,-4.372 33.19,-15.688 9.783,-11.316 17.156,-28.218 19.155,-47.656 1.74,-16.923 -0.89,-32.787 -6.406,-45.25 -9.327,5.225 -20.04,8.22 -31.438,8.22 -14.59,0 -28.083,-4.874 -38.937,-13.095 z m 248.75,29.374 c -14.947,0 -26.876,11.93 -26.876,26.875 0,14.945 11.93,26.874 26.875,26.874 14.945,0 26.842,-11.93 26.842,-26.875 0,-14.947 -11.897,-26.876 -26.843,-26.876 z m -421.659997,12.876 c -14.946,0 -26.873999,11.896 -26.873999,26.843 0,14.946 11.927999,26.875 26.874999,26.875 14.946,0 26.843,-11.93 26.843,-26.875 0,-14.947 -11.897,-26.844 -26.844,-26.844 z m 166.939997,71.81 c -10.02,7.32 -16.327,17.48 -16.53,27.532 -0.185,9.06 3.95,16.745 11.655,22.625 7.705,5.88 19.014,9.51 32.03,8.75 26.036,-1.52 46.228,-20.007 46.595,-38.125 0.148,-7.302 -2.523,-13.71 -7.594,-19 -10.786,8.85 -23.713,13.758 -37.28,12.344 -11.08,-1.154 -20.883,-6.343 -28.876,-14.125 z m 69.906,62.5 c -9.156,6.97 -20.466,11.91 -32.72,14.033 l 47.783,81.125 15.874,-13.625 -30.938,-81.532 z m -81.687,5.564 -9.595,91.78 18.53,13.345 24.532,-95.5 c -12.492,-0.33 -24.01,-3.736 -33.468,-9.626 z m 125.124,89.844 -15.72,13.5 65.22,51.03 c 2.495,-9.733 8.156,-18.518 16.156,-24.78 z m -142.47,19.375 -55.905,29.75 c 4.933,6.162 8.355,13.66 9.53,22 0.09,0.648 0.156,1.29 0.22,1.937 l 64.56,-40.406 -18.405,-13.28 z m 235.907,29.437 c -0.773,0.01 -1.562,0.048 -2.342,0.125 -1.784,0.176 -3.558,0.514 -5.344,1.063 -14.29,4.384 -22.197,19.273 -17.813,33.562 4.385,14.29 19.275,22.197 33.564,17.813 14.29,-4.385 22.196,-19.274 17.812,-33.563 -3.596,-11.72 -14.268,-19.132 -25.875,-19 z m -326.999997,1.78 c -1.355,-0.013 -2.736,0.087 -4.124,0.283 -14.8,2.084 -24.928,15.543 -22.844,30.343 2.085,14.8 15.544,24.928 30.344,22.844 14.799997,-2.084 24.927997,-15.544 22.843997,-30.344 -1.824,-12.95 -12.355,-22.316 -24.874997,-23.062 -0.447,-0.027 -0.892,-0.058 -1.344,-0.063 z"
       fill="#1b1f21"
       fill-opacity="1"
       filter="url(#shadow-1)"
       id="path2-8"
       transform="matrix(0.61914904,0,0,0.61914904,97.497844,97.497844)"
       style="filter:url(#filter8)" /></g></svg>
