<?xml version="1.0" encoding="UTF-8" standalone="no"?>
<svg
   height="512"
   width="512"
   style="enable-background:new 0 0 512 512"
   xml:space="preserve"
   version="1.1"
   id="svg4"
   sodipodi:docname="hormonechip.svg"
   inkscape:version="1.3.2 (091e20e, 2023-11-25, custom)"
   xmlns:inkscape="http://www.inkscape.org/namespaces/inkscape"
   xmlns:sodipodi="http://sodipodi.sourceforge.net/DTD/sodipodi-0.dtd"
   xmlns="http://www.w3.org/2000/svg"
   xmlns:svg="http://www.w3.org/2000/svg"><sodipodi:namedview
     id="namedview4"
     pagecolor="#505050"
     bordercolor="#eeeeee"
     borderopacity="1"
     inkscape:showpageshadow="0"
     inkscape:pageopacity="0"
     inkscape:pagecheckerboard="0"
     inkscape:deskcolor="#505050"
     inkscape:zoom="1.1131408"
     inkscape:cx="192.24882"
     inkscape:cy="231.32744"
     inkscape:window-width="1920"
     inkscape:window-height="1017"
     inkscape:window-x="-8"
     inkscape:window-y="-8"
     inkscape:window-maximized="1"
     inkscape:current-layer="svg4" /><defs
     id="defs2"><filter
       style="color-interpolation-filters:sRGB"
       id="a"
       x="-0.076983662"
       y="-0.076983478"
       width="1.1539673"
       height="1.153967"><feFlood
         flood-opacity="1"
         flood-color="#3A3F5E"
         result="flood"
         id="feFlood1" /><feComposite
         in="flood"
         in2="SourceGraphic"
         operator="out"
         result="composite1"
         id="feComposite1" /><feGaussianBlur
         in="composite1"
         stdDeviation="13.48"
         result="blur"
         id="feGaussianBlur1" /><feOffset
         result="offset"
         id="feOffset1" /><feComposite
         in="offset"
         in2="SourceGraphic"
         operator="atop"
         result="composite2"
         id="feComposite2" /></filter><filter
       id="shadow-1"
       height="1.1515523"
       width="1.1514594"
       x="-0.075729688"
       y="-0.075776137"><feFlood
         flood-color="rgba(58, 63, 94, 1)"
         result="flood"
         id="feFlood1-4" /><feComposite
         in="flood"
         in2="SourceGraphic"
         operator="atop"
         result="composite"
         id="feComposite1-1" /><feGaussianBlur
         in="composite"
         stdDeviation="15"
         result="blur"
         id="feGaussianBlur1-7" /><feOffset
         dx="0"
         dy="0"
         result="offset"
         id="feOffset1-2" /><feComposite
         in2="offset"
         in="SourceGraphic"
         operator="over"
         id="feComposite2-6" /></filter><filter
       style="color-interpolation-filters:sRGB;"
       inkscape:label="Drop Shadow"
       id="filter8"
       x="-0.075729688"
       y="-0.075776137"
       width="1.1514594"
       height="1.1515523"><feFlood
         result="flood"
         in="SourceGraphic"
         flood-opacity="1.000000"
         flood-color="rgb(58,63,94)"
         id="feFlood7" /><feGaussianBlur
         result="blur"
         in="SourceGraphic"
         stdDeviation="15.000000"
         id="feGaussianBlur7" /><feOffset
         result="offset"
         in="blur"
         dx="0.000000"
         dy="0.000000"
         id="feOffset7" /><feComposite
         result="comp1"
         operator="in"
         in="flood"
         in2="offset"
         id="feComposite7" /><feComposite
         result="comp2"
         operator="over"
         in="SourceGraphic"
         in2="comp1"
         id="feComposite8" /></filter><filter
       id="shadow-1-4"
       height="1.1597277"
       width="1.2000222"
       x="-0.10001111"
       y="-0.079863846"><feFlood
         flood-color="rgba(58, 63, 94, 1)"
         result="flood"
         id="feFlood1-9" /><feComposite
         in="flood"
         in2="SourceGraphic"
         operator="atop"
         result="composite"
         id="feComposite1-7" /><feGaussianBlur
         in="composite"
         stdDeviation="15"
         result="blur"
         id="feGaussianBlur1-4" /><feOffset
         dx="0"
         dy="0"
         result="offset"
         id="feOffset1-9" /><feComposite
         in="SourceGraphic"
         in2="offset"
         operator="over"
         id="feComposite2-7" /></filter><filter
       style="color-interpolation-filters:sRGB;"
       inkscape:label="Drop Shadow"
       id="filter12"
       x="-0.13645124"
       y="-0.1089631"
       width="1.2729025"
       height="1.2179262"><feFlood
         result="flood"
         in="SourceGraphic"
         flood-opacity="1.000000"
         flood-color="rgb(58,63,94)"
         id="feFlood11" /><feGaussianBlur
         result="blur"
         in="SourceGraphic"
         stdDeviation="15.000000"
         id="feGaussianBlur11" /><feOffset
         result="offset"
         in="blur"
         dx="0.000000"
         dy="0.000000"
         id="feOffset11" /><feComposite
         result="comp1"
         operator="in"
         in="flood"
         in2="offset"
         id="feComposite11" /><feComposite
         result="comp2"
         operator="over"
         in="SourceGraphic"
         in2="comp1"
         id="feComposite12" /></filter><filter
       style="color-interpolation-filters:sRGB;"
       inkscape:label="Drop Shadow"
       id="filter15"
       x="-0.12928357"
       y="-0.12519218"
       width="1.2585671"
       height="1.2503844"><feFlood
         result="flood"
         in="SourceGraphic"
         flood-opacity="1.000000"
         flood-color="rgb(58,63,94)"
         id="feFlood14" /><feGaussianBlur
         result="blur"
         in="SourceGraphic"
         stdDeviation="15.000000"
         id="feGaussianBlur14" /><feOffset
         result="offset"
         in="blur"
         dx="0.000000"
         dy="0.000000"
         id="feOffset14" /><feComposite
         result="comp1"
         operator="in"
         in="flood"
         in2="offset"
         id="feComposite14" /><feComposite
         result="comp2"
         operator="over"
         in="SourceGraphic"
         in2="comp1"
         id="feComposite15" /></filter></defs><path
     d="M0 0h512v512H0Z"
     fill="#b90202"
     style="fill:#1b1f21;fill-opacity:1"
     id="path2" /><g
     style="fill:#e64539;fill-opacity:1;filter:url(#a)"
     id="g4"><g
       style="fill:#e64539;fill-opacity:1"
       id="g3"><path
         style="fill:#e64539;fill-opacity:1;stroke-width:0.820792"
         d="m 93.26,45.877 c -26.125,0 -47.383,21.258 -47.383,47.4 v 40.15 c 0,9.667 7.827,17.512 17.51,17.512 h 17.51 v 35.02 h -17.51 c -9.683,0 -17.51,7.844 -17.51,17.51 v 215.254 c 0,26.142 21.258,47.4 47.383,47.4 h 215.27 c 9.683,0 17.51,-7.844 17.51,-17.51 0,-11.626 5.9,-17.51 17.51,-17.51 11.61,0 17.51,5.883 17.51,17.51 0,9.666 7.828,17.51 17.511,17.51 h 40.168 c 26.125,0 47.383,-21.258 47.383,-47.4 V 93.277 c 0,-26.142 -21.258,-47.4 -47.383,-47.4 h -40.168 c -9.683,0 -17.511,7.844 -17.511,17.51 0,0.175 -0.753,17.51 -17.51,17.51 -16.25,0 -17.51,-13.413 -17.51,-17.51 0,-9.666 -7.827,-17.51 -17.51,-17.51 H 93.26 Z"
         id="path3"
         sodipodi:nodetypes="ssssccsssssssssssssssssscs" /></g></g><path
     d="m 182.32079,112.23009 c -0.71551,0.0231 -1.25215,0.0809 -1.60748,0.0809 -0.59626,0 -1.18766,0.0195 -1.77663,0.0535 v -0.0535 c -3.90614,0 -7.65653,0.93699 -11.14894,2.68563 -0.53298,0.22268 -1.0605,0.4545 -1.57888,0.69969 l 0.0584,0.12291 c -3.39385,1.97863 -6.51511,4.74882 -9.24637,8.23211 -5.88051,7.49834 -9.70817,18.20069 -9.70817,30.18927 0,12.09262 4.64113,27.95145 10.1292,34.83162 l 6.11172,7.66261 -9.68505,1.50101 c -9.40882,1.45902 -15.89655,5.58177 -21.06519,11.94355 -5.16865,6.36179 -8.84481,15.16218 -11.28645,25.4873 -4.49633,19.0093 -4.73362,42.79419 -4.74578,64.61932 h 25.21228 l 6.39585,99.49292 h 68.5778 l 6.39768,-99.49353 H 248.937 v -5.6864 c 0,-21.53247 -0.63521,-45.4135 -6.16344,-65.46991 -2.76351,-10.02699 -6.76943,-19.16567 -12.85195,-26.46444 -4.42331,-5.30859 -10.03915,-9.55424 -16.73193,-12.23256 4.91858,-8.75354 7.67722,-19.62808 7.67722,-30.50688 0,-25.0839 -15.25222,-44.88842 -35.86596,-47.56735 h -0.002 c -1.06902,-0.13812 -1.96281,-0.15028 -2.67711,-0.12777 z m 147.35842,0 c -0.71552,-0.0225 -1.60931,-0.011 -2.67955,0.12777 -20.61373,2.67893 -35.86534,22.48345 -35.86534,47.56735 0,10.8788 2.75742,21.75334 7.6766,30.50688 -6.69398,2.67832 -12.30861,6.92397 -16.73193,12.23256 -6.08251,7.29938 -10.08783,16.43684 -12.85194,26.46444 -5.52823,20.0558 -6.16465,43.93683 -6.16465,65.46991 v 5.68642 h 25.58281 l 6.39829,99.49353 h 68.57658 l 6.39646,-99.49353 h 25.21228 c -0.0122,-21.82452 -0.24945,-45.61002 -4.74578,-64.61993 -2.44164,-10.32512 -6.1178,-19.12551 -11.28645,-25.48729 -5.16864,-6.36179 -11.65576,-10.48453 -21.06398,-11.94356 l -9.68626,-1.5004 6.11111,-7.66261 c 5.48807,-6.88139 10.13042,-22.739 10.13042,-34.83162 0,-11.98858 -3.82705,-22.69093 -9.70756,-30.19049 -2.73187,-3.48267 -5.85313,-6.25348 -9.2482,-8.23211 l 0.0578,-0.12168 c -0.51231,-0.24216 -1.03252,-0.47154 -1.55942,-0.69118 -3.49667,-1.75534 -7.25436,-2.69415 -11.16659,-2.69415 v 0.0535 c -0.58835,-0.0341 -1.18036,-0.0535 -1.77662,-0.0535 -0.35594,0 -0.89258,-0.0578 -1.6087,-0.0809 z m -146.14763,11.40509 h 0.002 c 14.2191,1.84599 25.96065,15.68421 25.96065,36.29064 0,11.35581 -4.1775,23.46973 -9.70451,30.12721 l -6.17074,7.43385 9.49522,1.78514 c 7.79404,1.46511 13.42813,5.09989 18.07048,10.67193 4.64235,5.57082 8.14511,13.2091 10.62508,22.20784 4.52492,16.41736 5.53432,37.09621 5.68521,56.762 h -24.80585 l -6.39525,99.49354 H 178.93608 V 123.77512 c 0.59322,-0.0548 1.18644,-0.0913 1.77662,-0.0913 1.6732,0 2.63756,-0.0712 2.81888,-0.0475 z m 144.93502,0 h 0.002 c 0.18253,-0.0243 1.14629,0.0475 2.81888,0.0475 0.59018,0 1.1834,0.0365 1.77662,0.0913 v 264.63343 h -27.35883 l -6.39586,-99.49354 h -24.80584 c 0.1521,-19.66579 1.16028,-40.34524 5.68581,-56.76261 2.47998,-8.99874 5.98273,-16.63641 10.62508,-22.20784 4.64235,-5.57143 10.27645,-9.2056 18.07048,-10.67193 l 9.49522,-1.78453 -6.17073,-7.43385 c -5.52641,-6.65748 -9.70574,-18.7714 -9.70574,-30.12721 0,-20.60643 11.74277,-34.44465 25.96187,-36.29064 z"
     fill="#1b1f21"
     fill-opacity="1"
     id="path1"
     style="stroke-width:0.608434;filter:url(#filter15)" /></svg>
